<svg xmlns="http://www.w3.org/2000/svg" width="600" height="600" version="1.1">
<line x1="108" y1="245" x2="120" y2="246" style="stroke:#0000fe;stroke-width:1"/>
<line x1="113" y1="253" x2="113" y2="255" style="stroke:#0100fd;stroke-width:1"/>
<line x1="112" y1="258" x2="115" y2="258" style="stroke:#0100fd;stroke-width:1"/>
<line x1="114" y1="263" x2="112" y2="267" style="stroke:#0200fc;stroke-width:1"/>
<line x1="115" y1="314" x2="116" y2="317" style="stroke:#0200fc;stroke-width:1"/>
<line x1="116" y1="322" x2="119" y2="317" style="stroke:#0300fb;stroke-width:1"/>
<line x1="120" y1="273" x2="130" y2="287" style="stroke:#0300fb;stroke-width:1"/>
<line x1="108" y1="401" x2="110" y2="404" style="stroke:#0400fa;stroke-width:1"/>
<line x1="111" y1="407" x2="114" y2="407" style="stroke:#0400fa;stroke-width:1"/>
<line x1="114" y1="408" x2="111" y2="410" style="stroke:#0500fa;stroke-width:1"/>
<line x1="133" y1="441" x2="133" y2="443" style="stroke:#0500f9;stroke-width:1"/>
<line x1="135" y1="419" x2="138" y2="421" style="stroke:#0500f9;stroke-width:1"/>
<line x1="139" y1="422" x2="143" y2="421" style="stroke:#0600f8;stroke-width:1"/>
<line x1="148" y1="421" x2="147" y2="423" style="stroke:#0700f7;stroke-width:1"/>
<line x1="147" y1="441" x2="135" y2="437" style="stroke:#0700f7;stroke-width:1"/>
<line x1="134" y1="436" x2="132" y2="429" style="stroke:#0800f6;stroke-width:1"/>
<line x1="128" y1="425" x2="120" y2="414" style="stroke:#0800f6;stroke-width:1"/>
<line x1="120" y1="419" x2="114" y2="427" style="stroke:#0900f5;stroke-width:1"/>
<line x1="113" y1="416" x2="112" y2="413" style="stroke:#0900f5;stroke-width:1"/>
<line x1="112" y1="412" x2="107" y2="409" style="stroke:#0a00f5;stroke-width:1"/>
<line x1="109" y1="429" x2="110" y2="425" style="stroke:#0a00f4;stroke-width:1"/>
<line x1="115" y1="438" x2="110" y2="451" style="stroke:#0a00f4;stroke-width:1"/>
<line x1="112" y1="457" x2="107" y2="455" style="stroke:#0b00f3;stroke-width:1"/>
<line x1="103" y1="445" x2="107" y2="446" style="stroke:#0b00f3;stroke-width:1"/>
<line x1="103" y1="434" x2="96" y2="438" style="stroke:#0c00f2;stroke-width:1"/>
<line x1="95" y1="437" x2="99" y2="437" style="stroke:#0c00f2;stroke-width:1"/>
<line x1="97" y1="433" x2="96" y2="430" style="stroke:#0d00f1;stroke-width:1"/>
<line x1="95" y1="422" x2="93" y2="421" style="stroke:#0d00f1;stroke-width:1"/>
<line x1="94" y1="410" x2="90" y2="415" style="stroke:#0e00f0;stroke-width:1"/>
<line x1="91" y1="423" x2="95" y2="419" style="stroke:#0e00f0;stroke-width:1"/>
<line x1="98" y1="407" x2="105" y2="410" style="stroke:#0f00f0;stroke-width:1"/>
<line x1="106" y1="403" x2="101" y2="395" style="stroke:#0f00ef;stroke-width:1"/>
<line x1="104" y1="390" x2="105" y2="393" style="stroke:#0f00ef;stroke-width:1"/>
<line x1="104" y1="385" x2="95" y2="377" style="stroke:#1000ee;stroke-width:1"/>
<line x1="95" y1="365" x2="93" y2="356" style="stroke:#1100ed;stroke-width:1"/>
<line x1="96" y1="316" x2="83" y2="316" style="stroke:#1100ed;stroke-width:1"/>
<line x1="91" y1="286" x2="93" y2="296" style="stroke:#1200ec;stroke-width:1"/>
<line x1="80" y1="328" x2="67" y2="322" style="stroke:#1200ec;stroke-width:1"/>
<line x1="67" y1="324" x2="70" y2="330" style="stroke:#1300eb;stroke-width:1"/>
<line x1="69" y1="330" x2="81" y2="341" style="stroke:#1300eb;stroke-width:1"/>
<line x1="86" y1="327" x2="91" y2="321" style="stroke:#1400eb;stroke-width:1"/>
<line x1="92" y1="315" x2="97" y2="312" style="stroke:#1400ea;stroke-width:1"/>
<line x1="97" y1="307" x2="94" y2="303" style="stroke:#1400ea;stroke-width:1"/>
<line x1="94" y1="301" x2="96" y2="300" style="stroke:#1500e9;stroke-width:1"/>
<line x1="87" y1="339" x2="93" y2="352" style="stroke:#1500e9;stroke-width:1"/>
<line x1="116" y1="351" x2="117" y2="348" style="stroke:#1600e8;stroke-width:1"/>
<line x1="111" y1="289" x2="108" y2="296" style="stroke:#1600e8;stroke-width:1"/>
<line x1="107" y1="291" x2="105" y2="283" style="stroke:#1700e7;stroke-width:1"/>
<line x1="105" y1="281" x2="100" y2="278" style="stroke:#1700e7;stroke-width:1"/>
<line x1="110" y1="348" x2="121" y2="331" style="stroke:#1800e6;stroke-width:1"/>
<line x1="121" y1="329" x2="129" y2="331" style="stroke:#1800e6;stroke-width:1"/>
<line x1="126" y1="332" x2="126" y2="347" style="stroke:#1900e6;stroke-width:1"/>
<line x1="117" y1="364" x2="112" y2="367" style="stroke:#1900e5;stroke-width:1"/>
<line x1="112" y1="370" x2="101" y2="367" style="stroke:#1900e5;stroke-width:1"/>
<line x1="96" y1="380" x2="94" y2="380" style="stroke:#1a00e4;stroke-width:1"/>
<line x1="84" y1="413" x2="83" y2="409" style="stroke:#1a00e4;stroke-width:1"/>
<line x1="82" y1="406" x2="84" y2="405" style="stroke:#1b00e3;stroke-width:1"/>
<line x1="80" y1="395" x2="83" y2="397" style="stroke:#1b00e3;stroke-width:1"/>
<line x1="83" y1="396" x2="87" y2="393" style="stroke:#1c00e2;stroke-width:1"/>
<line x1="87" y1="392" x2="88" y2="390" style="stroke:#1c00e2;stroke-width:1"/>
<line x1="92" y1="385" x2="89" y2="381" style="stroke:#1d00e1;stroke-width:1"/>
<line x1="89" y1="377" x2="83" y2="380" style="stroke:#1d00e1;stroke-width:1"/>
<line x1="77" y1="397" x2="75" y2="396" style="stroke:#1e00e1;stroke-width:1"/>
<line x1="75" y1="394" x2="75" y2="389" style="stroke:#1e00e0;stroke-width:1"/>
<line x1="74" y1="391" x2="70" y2="392" style="stroke:#1f00df;stroke-width:1"/>
<line x1="77" y1="385" x2="84" y2="389" style="stroke:#1f00df;stroke-width:1"/>
<line x1="84" y1="387" x2="86" y2="383" style="stroke:#2000de;stroke-width:1"/>
<line x1="91" y1="360" x2="90" y2="360" style="stroke:#2000de;stroke-width:1"/>
<line x1="90" y1="355" x2="81" y2="357" style="stroke:#2100dd;stroke-width:1"/>
<line x1="75" y1="356" x2="73" y2="357" style="stroke:#2100dd;stroke-width:1"/>
<line x1="80" y1="359" x2="83" y2="362" style="stroke:#2200dc;stroke-width:1"/>
<line x1="81" y1="364" x2="89" y2="366" style="stroke:#2300db;stroke-width:1"/>
<line x1="91" y1="367" x2="89" y2="368" style="stroke:#2300db;stroke-width:1"/>
<line x1="89" y1="370" x2="91" y2="370" style="stroke:#2400da;stroke-width:1"/>
<line x1="93" y1="367" x2="98" y2="372" style="stroke:#2400da;stroke-width:1"/>
<line x1="97" y1="363" x2="92" y2="365" style="stroke:#2500d9;stroke-width:1"/>
<line x1="98" y1="356" x2="101" y2="355" style="stroke:#2500d9;stroke-width:1"/>
<line x1="97" y1="360" x2="105" y2="360" style="stroke:#2600d8;stroke-width:1"/>
<line x1="108" y1="359" x2="110" y2="366" style="stroke:#2600d8;stroke-width:1"/>
<line x1="109" y1="367" x2="110" y2="369" style="stroke:#2700d7;stroke-width:1"/>
<line x1="98" y1="384" x2="98" y2="389" style="stroke:#2700d7;stroke-width:1"/>
<line x1="93" y1="396" x2="98" y2="395" style="stroke:#2800d7;stroke-width:1"/>
<line x1="86" y1="423" x2="88" y2="428" style="stroke:#2800d6;stroke-width:1"/>
<line x1="85" y1="432" x2="83" y2="434" style="stroke:#2800d6;stroke-width:1"/>
<line x1="83" y1="446" x2="84" y2="449" style="stroke:#2900d5;stroke-width:1"/>
<line x1="86" y1="459" x2="84" y2="460" style="stroke:#2900d5;stroke-width:1"/>
<line x1="80" y1="422" x2="81" y2="420" style="stroke:#2a00d4;stroke-width:1"/>
<line x1="80" y1="417" x2="75" y2="414" style="stroke:#2a00d4;stroke-width:1"/>
<line x1="76" y1="419" x2="74" y2="419" style="stroke:#2b00d3;stroke-width:1"/>
<line x1="77" y1="441" x2="74" y2="444" style="stroke:#2b00d3;stroke-width:1"/>
<line x1="73" y1="441" x2="67" y2="443" style="stroke:#2c00d2;stroke-width:1"/>
<line x1="67" y1="444" x2="70" y2="451" style="stroke:#2c00d2;stroke-width:1"/>
<line x1="70" y1="452" x2="71" y2="455" style="stroke:#2d00d2;stroke-width:1"/>
<line x1="73" y1="461" x2="76" y2="459" style="stroke:#2d00d1;stroke-width:1"/>
<line x1="87" y1="477" x2="89" y2="480" style="stroke:#2d00d1;stroke-width:1"/>
<line x1="91" y1="484" x2="93" y2="483" style="stroke:#2e00d0;stroke-width:1"/>
<line x1="99" y1="502" x2="101" y2="502" style="stroke:#2e00d0;stroke-width:1"/>
<line x1="110" y1="516" x2="118" y2="517" style="stroke:#2f00cf;stroke-width:1"/>
<line x1="118" y1="516" x2="116" y2="517" style="stroke:#2f00cf;stroke-width:1"/>
<line x1="109" y1="503" x2="106" y2="501" style="stroke:#3000ce;stroke-width:1"/>
<line x1="106" y1="500" x2="108" y2="498" style="stroke:#3000ce;stroke-width:1"/>
<line x1="116" y1="506" x2="118" y2="499" style="stroke:#3100cd;stroke-width:1"/>
<line x1="121" y1="500" x2="124" y2="498" style="stroke:#3200cd;stroke-width:1"/>
<line x1="123" y1="502" x2="127" y2="504" style="stroke:#3200cc;stroke-width:1"/>
<line x1="130" y1="511" x2="131" y2="517" style="stroke:#3200cc;stroke-width:1"/>
<line x1="132" y1="517" x2="137" y2="517" style="stroke:#3300cb;stroke-width:1"/>
<line x1="137" y1="521" x2="139" y2="525" style="stroke:#3300cb;stroke-width:1"/>
<line x1="144" y1="526" x2="141" y2="521" style="stroke:#3400ca;stroke-width:1"/>
<line x1="140" y1="521" x2="139" y2="517" style="stroke:#3400ca;stroke-width:1"/>
<line x1="137" y1="514" x2="140" y2="510" style="stroke:#3500c9;stroke-width:1"/>
<line x1="143" y1="511" x2="140" y2="514" style="stroke:#3500c9;stroke-width:1"/>
<line x1="137" y1="509" x2="133" y2="507" style="stroke:#3600c8;stroke-width:1"/>
<line x1="133" y1="506" x2="132" y2="504" style="stroke:#3600c8;stroke-width:1"/>
<line x1="131" y1="502" x2="134" y2="499" style="stroke:#3700c8;stroke-width:1"/>
<line x1="124" y1="480" x2="124" y2="474" style="stroke:#3700c7;stroke-width:1"/>
<line x1="121" y1="473" x2="117" y2="480" style="stroke:#3800c6;stroke-width:1"/>
<line x1="117" y1="481" x2="115" y2="481" style="stroke:#3800c6;stroke-width:1"/>
<line x1="119" y1="494" x2="125" y2="488" style="stroke:#3900c5;stroke-width:1"/>
<line x1="134" y1="513" x2="136" y2="512" style="stroke:#3900c5;stroke-width:1"/>
<line x1="137" y1="504" x2="145" y2="498" style="stroke:#3a00c4;stroke-width:1"/>
<line x1="130" y1="460" x2="127" y2="463" style="stroke:#3b00c3;stroke-width:1"/>
<line x1="161" y1="508" x2="159" y2="514" style="stroke:#3b00c3;stroke-width:1"/>
<line x1="169" y1="518" x2="165" y2="520" style="stroke:#3c00c3;stroke-width:1"/>
<line x1="164" y1="520" x2="159" y2="520" style="stroke:#3c00c2;stroke-width:1"/>
<line x1="163" y1="524" x2="163" y2="527" style="stroke:#3c00c2;stroke-width:1"/>
<line x1="162" y1="528" x2="167" y2="522" style="stroke:#3d00c1;stroke-width:1"/>
<line x1="179" y1="517" x2="174" y2="515" style="stroke:#3e00c0;stroke-width:1"/>
<line x1="157" y1="509" x2="160" y2="506" style="stroke:#3e00c0;stroke-width:1"/>
<line x1="163" y1="508" x2="165" y2="509" style="stroke:#3f00bf;stroke-width:1"/>
<line x1="178" y1="511" x2="179" y2="508" style="stroke:#3f00bf;stroke-width:1"/>
<line x1="179" y1="504" x2="178" y2="502" style="stroke:#4100be;stroke-width:1"/>
<line x1="182" y1="498" x2="189" y2="495" style="stroke:#4100bd;stroke-width:1"/>
<line x1="188" y1="491" x2="185" y2="492" style="stroke:#4100bd;stroke-width:1"/>
<line x1="184" y1="495" x2="181" y2="488" style="stroke:#4200bc;stroke-width:1"/>
<line x1="179" y1="485" x2="182" y2="484" style="stroke:#4200bc;stroke-width:1"/>
<line x1="185" y1="485" x2="183" y2="486" style="stroke:#4300bb;stroke-width:1"/>
<line x1="192" y1="476" x2="195" y2="486" style="stroke:#4300bb;stroke-width:1"/>
<line x1="191" y1="499" x2="189" y2="500" style="stroke:#4400ba;stroke-width:1"/>
<line x1="186" y1="508" x2="189" y2="508" style="stroke:#4400ba;stroke-width:1"/>
<line x1="191" y1="512" x2="194" y2="510" style="stroke:#4500b9;stroke-width:1"/>
<line x1="201" y1="503" x2="196" y2="504" style="stroke:#4500b9;stroke-width:1"/>
<line x1="194" y1="506" x2="185" y2="505" style="stroke:#4600b9;stroke-width:1"/>
<line x1="180" y1="502" x2="179" y2="497" style="stroke:#4600b8;stroke-width:1"/>
<line x1="174" y1="494" x2="178" y2="491" style="stroke:#4600b8;stroke-width:1"/>
<line x1="179" y1="494" x2="176" y2="499" style="stroke:#4700b7;stroke-width:1"/>
<line x1="170" y1="499" x2="172" y2="496" style="stroke:#4800b6;stroke-width:1"/>
<line x1="170" y1="491" x2="173" y2="488" style="stroke:#4800b6;stroke-width:1"/>
<line x1="166" y1="475" x2="162" y2="477" style="stroke:#4900b5;stroke-width:1"/>
<line x1="164" y1="478" x2="166" y2="481" style="stroke:#4a00b4;stroke-width:1"/>
<line x1="166" y1="482" x2="172" y2="481" style="stroke:#4a00b4;stroke-width:1"/>
<line x1="171" y1="479" x2="170" y2="463" style="stroke:#4b00b4;stroke-width:1"/>
<line x1="170" y1="464" x2="160" y2="469" style="stroke:#4b00b3;stroke-width:1"/>
<line x1="159" y1="454" x2="157" y2="448" style="stroke:#4c00b2;stroke-width:1"/>
<line x1="160" y1="445" x2="161" y2="447" style="stroke:#4c00b2;stroke-width:1"/>
<line x1="162" y1="448" x2="165" y2="443" style="stroke:#4d00b1;stroke-width:1"/>
<line x1="167" y1="443" x2="170" y2="440" style="stroke:#4d00b1;stroke-width:1"/>
<line x1="159" y1="438" x2="155" y2="438" style="stroke:#4e00b0;stroke-width:1"/>
<line x1="154" y1="434" x2="160" y2="425" style="stroke:#4e00b0;stroke-width:1"/>
<line x1="156" y1="426" x2="151" y2="422" style="stroke:#4f00af;stroke-width:1"/>
<line x1="130" y1="409" x2="129" y2="406" style="stroke:#4f00af;stroke-width:1"/>
<line x1="126" y1="404" x2="132" y2="410" style="stroke:#5000af;stroke-width:1"/>
<line x1="154" y1="417" x2="162" y2="412" style="stroke:#5100ad;stroke-width:1"/>
<line x1="162" y1="411" x2="160" y2="407" style="stroke:#5100ad;stroke-width:1"/>
<line x1="156" y1="406" x2="148" y2="409" style="stroke:#5200ac;stroke-width:1"/>
<line x1="147" y1="410" x2="150" y2="413" style="stroke:#5200ac;stroke-width:1"/>
<line x1="140" y1="412" x2="140" y2="410" style="stroke:#5300ab;stroke-width:1"/>
<line x1="137" y1="407" x2="131" y2="416" style="stroke:#5400aa;stroke-width:1"/>
<line x1="132" y1="418" x2="138" y2="419" style="stroke:#5400aa;stroke-width:1"/>
<line x1="141" y1="420" x2="144" y2="427" style="stroke:#5500aa;stroke-width:1"/>
<line x1="140" y1="467" x2="138" y2="468" style="stroke:#5500a9;stroke-width:1"/>
<line x1="148" y1="482" x2="153" y2="488" style="stroke:#5600a8;stroke-width:1"/>
<line x1="153" y1="489" x2="155" y2="493" style="stroke:#5600a8;stroke-width:1"/>
<line x1="172" y1="507" x2="168" y2="508" style="stroke:#5700a7;stroke-width:1"/>
<line x1="146" y1="488" x2="145" y2="492" style="stroke:#5700a7;stroke-width:1"/>
<line x1="135" y1="473" x2="136" y2="455" style="stroke:#5800a6;stroke-width:1"/>
<line x1="138" y1="456" x2="137" y2="452" style="stroke:#5800a6;stroke-width:1"/>
<line x1="140" y1="447" x2="143" y2="458" style="stroke:#5900a5;stroke-width:1"/>
<line x1="143" y1="459" x2="146" y2="460" style="stroke:#5900a5;stroke-width:1"/>
<line x1="142" y1="467" x2="154" y2="471" style="stroke:#5a00a5;stroke-width:1"/>
<line x1="153" y1="480" x2="154" y2="477" style="stroke:#5a00a4;stroke-width:1"/>
<line x1="158" y1="489" x2="161" y2="490" style="stroke:#5a00a4;stroke-width:1"/>
<line x1="169" y1="497" x2="159" y2="503" style="stroke:#5b00a3;stroke-width:1"/>
<line x1="148" y1="494" x2="151" y2="500" style="stroke:#5b00a3;stroke-width:1"/>
<line x1="154" y1="502" x2="157" y2="505" style="stroke:#5c00a2;stroke-width:1"/>
<line x1="157" y1="504" x2="150" y2="513" style="stroke:#5c00a2;stroke-width:1"/>
<line x1="148" y1="515" x2="149" y2="517" style="stroke:#5d00a1;stroke-width:1"/>
<line x1="156" y1="518" x2="156" y2="513" style="stroke:#5d00a1;stroke-width:1"/>
<line x1="155" y1="513" x2="154" y2="510" style="stroke:#5e00a0;stroke-width:1"/>
<line x1="142" y1="505" x2="145" y2="512" style="stroke:#5e00a0;stroke-width:1"/>
<line x1="146" y1="512" x2="144" y2="517" style="stroke:#5f00a0;stroke-width:1"/>
<line x1="145" y1="517" x2="144" y2="520" style="stroke:#5f009f;stroke-width:1"/>
<line x1="151" y1="522" x2="148" y2="523" style="stroke:#5f009f;stroke-width:1"/>
<line x1="146" y1="523" x2="147" y2="528" style="stroke:#60009e;stroke-width:1"/>
<line x1="153" y1="526" x2="151" y2="524" style="stroke:#61009d;stroke-width:1"/>
<line x1="146" y1="531" x2="145" y2="535" style="stroke:#61009d;stroke-width:1"/>
<line x1="135" y1="536" x2="133" y2="533" style="stroke:#62009c;stroke-width:1"/>
<line x1="134" y1="533" x2="132" y2="534" style="stroke:#62009c;stroke-width:1"/>
<line x1="56" y1="435" x2="53" y2="434" style="stroke:#63009b;stroke-width:1"/>
<line x1="53" y1="433" x2="53" y2="431" style="stroke:#63009b;stroke-width:1"/>
<line x1="70" y1="403" x2="74" y2="401" style="stroke:#64009b;stroke-width:1"/>
<line x1="73" y1="402" x2="80" y2="407" style="stroke:#64009a;stroke-width:1"/>
<line x1="77" y1="422" x2="67" y2="434" style="stroke:#64009a;stroke-width:1"/>
<line x1="67" y1="432" x2="65" y2="432" style="stroke:#650099;stroke-width:1"/>
<line x1="66" y1="440" x2="64" y2="441" style="stroke:#650099;stroke-width:1"/>
<line x1="54" y1="421" x2="54" y2="416" style="stroke:#660098;stroke-width:1"/>
<line x1="59" y1="411" x2="56" y2="418" style="stroke:#660098;stroke-width:1"/>
<line x1="66" y1="411" x2="67" y2="413" style="stroke:#670097;stroke-width:1"/>
<line x1="56" y1="423" x2="57" y2="426" style="stroke:#670097;stroke-width:1"/>
<line x1="70" y1="407" x2="65" y2="405" style="stroke:#680096;stroke-width:1"/>
<line x1="67" y1="400" x2="67" y2="403" style="stroke:#680096;stroke-width:1"/>
<line x1="92" y1="480" x2="94" y2="478" style="stroke:#690096;stroke-width:1"/>
<line x1="93" y1="476" x2="92" y2="473" style="stroke:#690095;stroke-width:1"/>
<line x1="89" y1="469" x2="82" y2="476" style="stroke:#690095;stroke-width:1"/>
<line x1="73" y1="466" x2="78" y2="470" style="stroke:#6a0094;stroke-width:1"/>
<line x1="80" y1="472" x2="75" y2="474" style="stroke:#6a0094;stroke-width:1"/>
<line x1="77" y1="477" x2="83" y2="481" style="stroke:#6b0093;stroke-width:1"/>
<line x1="90" y1="486" x2="97" y2="492" style="stroke:#6b0093;stroke-width:1"/>
<line x1="106" y1="495" x2="99" y2="485" style="stroke:#6c0092;stroke-width:1"/>
<line x1="90" y1="457" x2="88" y2="458" style="stroke:#6d0091;stroke-width:1"/>
<line x1="89" y1="464" x2="96" y2="470" style="stroke:#6d0091;stroke-width:1"/>
<line x1="104" y1="485" x2="106" y2="485" style="stroke:#6e0091;stroke-width:1"/>
<line x1="91" y1="455" x2="96" y2="454" style="stroke:#6e0090;stroke-width:1"/>
<line x1="89" y1="433" x2="91" y2="433" style="stroke:#6e0090;stroke-width:1"/>
<line x1="100" y1="447" x2="102" y2="449" style="stroke:#6f008f;stroke-width:1"/>
<line x1="99" y1="450" x2="98" y2="448" style="stroke:#70008e;stroke-width:1"/>
<line x1="96" y1="444" x2="96" y2="448" style="stroke:#70008e;stroke-width:1"/>
<line x1="107" y1="467" x2="110" y2="461" style="stroke:#71008d;stroke-width:1"/>
<line x1="113" y1="465" x2="120" y2="466" style="stroke:#71008d;stroke-width:1"/>
<line x1="121" y1="468" x2="117" y2="470" style="stroke:#72008c;stroke-width:1"/>
<line x1="117" y1="471" x2="108" y2="470" style="stroke:#72008c;stroke-width:1"/>
<line x1="113" y1="481" x2="111" y2="481" style="stroke:#73008c;stroke-width:1"/>
<line x1="110" y1="478" x2="106" y2="477" style="stroke:#73008b;stroke-width:1"/>
<line x1="111" y1="487" x2="108" y2="486" style="stroke:#73008b;stroke-width:1"/>
<line x1="112" y1="493" x2="114" y2="493" style="stroke:#74008a;stroke-width:1"/>
<line x1="120" y1="508" x2="124" y2="505" style="stroke:#74008a;stroke-width:1"/>
<line x1="126" y1="517" x2="120" y2="514" style="stroke:#750089;stroke-width:1"/>
<line x1="101" y1="495" x2="100" y2="497" style="stroke:#750089;stroke-width:1"/>
<line x1="104" y1="501" x2="103" y2="505" style="stroke:#760088;stroke-width:1"/>
<line x1="102" y1="505" x2="97" y2="506" style="stroke:#760088;stroke-width:1"/>
<line x1="85" y1="490" x2="86" y2="484" style="stroke:#770087;stroke-width:1"/>
<line x1="102" y1="511" x2="105" y2="513" style="stroke:#770087;stroke-width:1"/>
<line x1="119" y1="527" x2="120" y2="530" style="stroke:#780087;stroke-width:1"/>
<line x1="127" y1="532" x2="125" y2="535" style="stroke:#780086;stroke-width:1"/>
<line x1="123" y1="535" x2="113" y2="521" style="stroke:#780086;stroke-width:1"/>
<line x1="125" y1="522" x2="127" y2="520" style="stroke:#790085;stroke-width:1"/>
<line x1="144" y1="530" x2="153" y2="536" style="stroke:#790085;stroke-width:1"/>
<line x1="169" y1="525" x2="172" y2="526" style="stroke:#7a0084;stroke-width:1"/>
<line x1="251" y1="463" x2="255" y2="463" style="stroke:#7a0084;stroke-width:1"/>
<line x1="256" y1="466" x2="250" y2="465" style="stroke:#7b0083;stroke-width:1"/>
<line x1="250" y1="466" x2="252" y2="468" style="stroke:#7b0083;stroke-width:1"/>
<line x1="253" y1="462" x2="251" y2="457" style="stroke:#7c0082;stroke-width:1"/>
<line x1="265" y1="454" x2="263" y2="452" style="stroke:#7c0082;stroke-width:1"/>
<line x1="260" y1="449" x2="261" y2="452" style="stroke:#7d0082;stroke-width:1"/>
<line x1="259" y1="453" x2="257" y2="449" style="stroke:#7d0081;stroke-width:1"/>
<line x1="256" y1="441" x2="251" y2="440" style="stroke:#7d0081;stroke-width:1"/>
<line x1="259" y1="438" x2="262" y2="444" style="stroke:#7e0080;stroke-width:1"/>
<line x1="263" y1="445" x2="265" y2="442" style="stroke:#7e0080;stroke-width:1"/>
<line x1="254" y1="431" x2="251" y2="429" style="stroke:#7f007f;stroke-width:1"/>
<line x1="230" y1="419" x2="237" y2="415" style="stroke:#7f007f;stroke-width:1"/>
<line x1="245" y1="413" x2="252" y2="415" style="stroke:#80007e;stroke-width:1"/>
<line x1="255" y1="417" x2="246" y2="417" style="stroke:#80007e;stroke-width:1"/>
<line x1="243" y1="417" x2="236" y2="420" style="stroke:#81007d;stroke-width:1"/>
<line x1="240" y1="425" x2="233" y2="431" style="stroke:#82007d;stroke-width:1"/>
<line x1="228" y1="434" x2="233" y2="433" style="stroke:#82007c;stroke-width:1"/>
<line x1="242" y1="427" x2="244" y2="431" style="stroke:#82007c;stroke-width:1"/>
<line x1="246" y1="430" x2="245" y2="433" style="stroke:#83007b;stroke-width:1"/>
<line x1="246" y1="433" x2="242" y2="434" style="stroke:#83007b;stroke-width:1"/>
<line x1="243" y1="433" x2="251" y2="435" style="stroke:#84007a;stroke-width:1"/>
<line x1="247" y1="437" x2="245" y2="442" style="stroke:#850079;stroke-width:1"/>
<line x1="244" y1="442" x2="240" y2="443" style="stroke:#850079;stroke-width:1"/>
<line x1="235" y1="441" x2="229" y2="445" style="stroke:#860078;stroke-width:1"/>
<line x1="228" y1="446" x2="231" y2="443" style="stroke:#860078;stroke-width:1"/>
<line x1="222" y1="442" x2="226" y2="443" style="stroke:#870078;stroke-width:1"/>
<line x1="202" y1="482" x2="205" y2="485" style="stroke:#870077;stroke-width:1"/>
<line x1="216" y1="466" x2="218" y2="461" style="stroke:#870077;stroke-width:1"/>
<line x1="220" y1="459" x2="227" y2="456" style="stroke:#880076;stroke-width:1"/>
<line x1="227" y1="455" x2="228" y2="451" style="stroke:#880076;stroke-width:1"/>
<line x1="251" y1="449" x2="251" y2="452" style="stroke:#890075;stroke-width:1"/>
<line x1="262" y1="452" x2="271" y2="450" style="stroke:#8a0074;stroke-width:1"/>
<line x1="267" y1="449" x2="269" y2="447" style="stroke:#8a0074;stroke-width:1"/>
<line x1="265" y1="445" x2="262" y2="447" style="stroke:#8b0073;stroke-width:1"/>
<line x1="260" y1="448" x2="258" y2="444" style="stroke:#8b0073;stroke-width:1"/>
<line x1="256" y1="443" x2="254" y2="449" style="stroke:#8c0073;stroke-width:1"/>
<line x1="252" y1="446" x2="248" y2="443" style="stroke:#8c0072;stroke-width:1"/>
<line x1="237" y1="439" x2="235" y2="437" style="stroke:#8d0071;stroke-width:1"/>
<line x1="233" y1="435" x2="231" y2="438" style="stroke:#8e0070;stroke-width:1"/>
<line x1="228" y1="439" x2="229" y2="437" style="stroke:#8e0070;stroke-width:1"/>
<line x1="207" y1="459" x2="205" y2="463" style="stroke:#8f006f;stroke-width:1"/>
<line x1="204" y1="472" x2="202" y2="473" style="stroke:#90006e;stroke-width:1"/>
<line x1="203" y1="476" x2="213" y2="476" style="stroke:#91006e;stroke-width:1"/>
<line x1="216" y1="473" x2="224" y2="480" style="stroke:#91006d;stroke-width:1"/>
<line x1="224" y1="481" x2="212" y2="479" style="stroke:#91006d;stroke-width:1"/>
<line x1="206" y1="489" x2="212" y2="484" style="stroke:#92006c;stroke-width:1"/>
<line x1="212" y1="485" x2="218" y2="485" style="stroke:#92006c;stroke-width:1"/>
<line x1="226" y1="472" x2="233" y2="472" style="stroke:#93006b;stroke-width:1"/>
<line x1="236" y1="478" x2="239" y2="477" style="stroke:#93006b;stroke-width:1"/>
<line x1="237" y1="476" x2="237" y2="471" style="stroke:#94006a;stroke-width:1"/>
<line x1="237" y1="470" x2="238" y2="467" style="stroke:#94006a;stroke-width:1"/>
<line x1="237" y1="464" x2="232" y2="455" style="stroke:#950069;stroke-width:1"/>
<line x1="234" y1="451" x2="231" y2="452" style="stroke:#960069;stroke-width:1"/>
<line x1="230" y1="456" x2="228" y2="458" style="stroke:#960068;stroke-width:1"/>
<line x1="223" y1="466" x2="225" y2="468" style="stroke:#960068;stroke-width:1"/>
<line x1="206" y1="496" x2="204" y2="499" style="stroke:#970067;stroke-width:1"/>
<line x1="198" y1="501" x2="197" y2="498" style="stroke:#980066;stroke-width:1"/>
<line x1="203" y1="490" x2="201" y2="488" style="stroke:#980066;stroke-width:1"/>
<line x1="194" y1="498" x2="192" y2="492" style="stroke:#990065;stroke-width:1"/>
<line x1="193" y1="481" x2="194" y2="479" style="stroke:#990065;stroke-width:1"/>
<line x1="203" y1="438" x2="213" y2="438" style="stroke:#9a0064;stroke-width:1"/>
<line x1="212" y1="439" x2="215" y2="441" style="stroke:#9a0064;stroke-width:1"/>
<line x1="204" y1="457" x2="203" y2="459" style="stroke:#9b0064;stroke-width:1"/>
<line x1="200" y1="465" x2="193" y2="470" style="stroke:#9b0063;stroke-width:1"/>
<line x1="196" y1="434" x2="198" y2="428" style="stroke:#9c0062;stroke-width:1"/>
<line x1="211" y1="426" x2="213" y2="425" style="stroke:#9c0062;stroke-width:1"/>
<line x1="203" y1="433" x2="204" y2="430" style="stroke:#9d0061;stroke-width:1"/>
<line x1="206" y1="430" x2="202" y2="425" style="stroke:#9e0060;stroke-width:1"/>
<line x1="201" y1="417" x2="204" y2="415" style="stroke:#9e0060;stroke-width:1"/>
<line x1="209" y1="421" x2="212" y2="422" style="stroke:#9f005f;stroke-width:1"/>
<line x1="205" y1="425" x2="206" y2="421" style="stroke:#9f005f;stroke-width:1"/>
<line x1="205" y1="420" x2="200" y2="421" style="stroke:#a0005f;stroke-width:1"/>
<line x1="192" y1="421" x2="193" y2="413" style="stroke:#a0005e;stroke-width:1"/>
<line x1="199" y1="412" x2="198" y2="416" style="stroke:#a1005d;stroke-width:1"/>
<line x1="195" y1="427" x2="191" y2="428" style="stroke:#a2005c;stroke-width:1"/>
<line x1="196" y1="431" x2="199" y2="434" style="stroke:#a2005c;stroke-width:1"/>
<line x1="190" y1="461" x2="199" y2="463" style="stroke:#a3005b;stroke-width:1"/>
<line x1="217" y1="438" x2="221" y2="434" style="stroke:#a4005a;stroke-width:1"/>
<line x1="229" y1="407" x2="236" y2="408" style="stroke:#a4005a;stroke-width:1"/>
<line x1="238" y1="409" x2="237" y2="413" style="stroke:#a5005a;stroke-width:1"/>
<line x1="235" y1="415" x2="234" y2="411" style="stroke:#a50059;stroke-width:1"/>
<line x1="230" y1="402" x2="229" y2="365" style="stroke:#a50059;stroke-width:1"/>
<line x1="229" y1="363" x2="236" y2="362" style="stroke:#a60058;stroke-width:1"/>
<line x1="238" y1="361" x2="233" y2="362" style="stroke:#a60058;stroke-width:1"/>
<line x1="229" y1="361" x2="228" y2="359" style="stroke:#a70057;stroke-width:1"/>
<line x1="229" y1="355" x2="219" y2="353" style="stroke:#a70057;stroke-width:1"/>
<line x1="222" y1="352" x2="227" y2="348" style="stroke:#a80056;stroke-width:1"/>
<line x1="232" y1="341" x2="239" y2="358" style="stroke:#a80056;stroke-width:1"/>
<line x1="242" y1="337" x2="243" y2="328" style="stroke:#a90055;stroke-width:1"/>
<line x1="244" y1="326" x2="246" y2="307" style="stroke:#a90055;stroke-width:1"/>
<line x1="248" y1="295" x2="289" y2="281" style="stroke:#aa0055;stroke-width:1"/>
<line x1="305" y1="265" x2="314" y2="258" style="stroke:#aa0054;stroke-width:1"/>
<line x1="318" y1="249" x2="316" y2="249" style="stroke:#aa0054;stroke-width:1"/>
<line x1="312" y1="257" x2="302" y2="275" style="stroke:#ab0053;stroke-width:1"/>
<line x1="298" y1="279" x2="263" y2="251" style="stroke:#ab0053;stroke-width:1"/>
<line x1="259" y1="251" x2="245" y2="224" style="stroke:#ac0052;stroke-width:1"/>
<line x1="242" y1="225" x2="239" y2="216" style="stroke:#ad0051;stroke-width:1"/>
<line x1="243" y1="211" x2="262" y2="208" style="stroke:#ad0051;stroke-width:1"/>
<line x1="260" y1="212" x2="260" y2="214" style="stroke:#ae0050;stroke-width:1"/>
<line x1="258" y1="217" x2="258" y2="219" style="stroke:#ae0050;stroke-width:1"/>
<line x1="235" y1="232" x2="228" y2="228" style="stroke:#af0050;stroke-width:1"/>
<line x1="230" y1="226" x2="239" y2="228" style="stroke:#af004f;stroke-width:1"/>
<line x1="240" y1="228" x2="241" y2="233" style="stroke:#af004f;stroke-width:1"/>
<line x1="234" y1="238" x2="231" y2="238" style="stroke:#b0004e;stroke-width:1"/>
<line x1="210" y1="263" x2="210" y2="267" style="stroke:#b0004e;stroke-width:1"/>
<line x1="209" y1="266" x2="212" y2="263" style="stroke:#b1004d;stroke-width:1"/>
<line x1="212" y1="261" x2="215" y2="261" style="stroke:#b1004d;stroke-width:1"/>
<line x1="219" y1="257" x2="230" y2="261" style="stroke:#b2004c;stroke-width:1"/>
<line x1="245" y1="286" x2="248" y2="288" style="stroke:#b2004c;stroke-width:1"/>
<line x1="223" y1="241" x2="226" y2="244" style="stroke:#b3004b;stroke-width:1"/>
<line x1="213" y1="257" x2="215" y2="255" style="stroke:#b3004b;stroke-width:1"/>
<line x1="222" y1="246" x2="211" y2="243" style="stroke:#b4004b;stroke-width:1"/>
<line x1="207" y1="244" x2="208" y2="251" style="stroke:#b4004a;stroke-width:1"/>
<line x1="205" y1="272" x2="208" y2="273" style="stroke:#b4004a;stroke-width:1"/>
<line x1="207" y1="288" x2="197" y2="284" style="stroke:#b50049;stroke-width:1"/>
<line x1="191" y1="262" x2="188" y2="260" style="stroke:#b50049;stroke-width:1"/>
<line x1="186" y1="260" x2="185" y2="257" style="stroke:#b60048;stroke-width:1"/>
<line x1="183" y1="258" x2="183" y2="256" style="stroke:#b70047;stroke-width:1"/>
<line x1="181" y1="255" x2="173" y2="256" style="stroke:#b70047;stroke-width:1"/>
<line x1="171" y1="259" x2="167" y2="257" style="stroke:#b80046;stroke-width:1"/>
<line x1="160" y1="257" x2="162" y2="254" style="stroke:#b90045;stroke-width:1"/>
<line x1="161" y1="254" x2="153" y2="251" style="stroke:#b90045;stroke-width:1"/>
<line x1="151" y1="250" x2="154" y2="250" style="stroke:#ba0044;stroke-width:1"/>
<line x1="156" y1="250" x2="159" y2="255" style="stroke:#ba0044;stroke-width:1"/>
<line x1="147" y1="254" x2="133" y2="278" style="stroke:#bb0043;stroke-width:1"/>
<line x1="131" y1="283" x2="135" y2="284" style="stroke:#bc0042;stroke-width:1"/>
<line x1="144" y1="279" x2="167" y2="279" style="stroke:#bd0041;stroke-width:1"/>
<line x1="166" y1="276" x2="162" y2="278" style="stroke:#be0041;stroke-width:1"/>
<line x1="173" y1="273" x2="175" y2="277" style="stroke:#be0040;stroke-width:1"/>
<line x1="180" y1="285" x2="187" y2="279" style="stroke:#bf003f;stroke-width:1"/>
<line x1="190" y1="286" x2="199" y2="297" style="stroke:#bf003f;stroke-width:1"/>
<line x1="196" y1="300" x2="189" y2="309" style="stroke:#c0003e;stroke-width:1"/>
<line x1="190" y1="310" x2="174" y2="320" style="stroke:#c0003e;stroke-width:1"/>
<line x1="172" y1="321" x2="174" y2="315" style="stroke:#c1003d;stroke-width:1"/>
<line x1="175" y1="315" x2="179" y2="313" style="stroke:#c1003d;stroke-width:1"/>
<line x1="186" y1="335" x2="189" y2="336" style="stroke:#c2003c;stroke-width:1"/>
<line x1="197" y1="341" x2="207" y2="347" style="stroke:#c2003c;stroke-width:1"/>
<line x1="208" y1="351" x2="210" y2="352" style="stroke:#c3003c;stroke-width:1"/>
<line x1="208" y1="346" x2="204" y2="347" style="stroke:#c3003b;stroke-width:1"/>
<line x1="199" y1="352" x2="196" y2="351" style="stroke:#c4003a;stroke-width:1"/>
<line x1="195" y1="350" x2="199" y2="344" style="stroke:#c4003a;stroke-width:1"/>
<line x1="194" y1="341" x2="198" y2="338" style="stroke:#c50039;stroke-width:1"/>
<line x1="197" y1="336" x2="191" y2="322" style="stroke:#c50039;stroke-width:1"/>
<line x1="190" y1="321" x2="190" y2="324" style="stroke:#c60038;stroke-width:1"/>
<line x1="189" y1="325" x2="186" y2="327" style="stroke:#c60038;stroke-width:1"/>
<line x1="184" y1="325" x2="181" y2="328" style="stroke:#c70037;stroke-width:1"/>
<line x1="173" y1="353" x2="177" y2="358" style="stroke:#c70037;stroke-width:1"/>
<line x1="189" y1="363" x2="195" y2="360" style="stroke:#c80036;stroke-width:1"/>
<line x1="192" y1="363" x2="188" y2="367" style="stroke:#c80036;stroke-width:1"/>
<line x1="190" y1="368" x2="179" y2="376" style="stroke:#c90035;stroke-width:1"/>
<line x1="178" y1="379" x2="178" y2="386" style="stroke:#c90035;stroke-width:1"/>
<line x1="183" y1="387" x2="186" y2="389" style="stroke:#ca0034;stroke-width:1"/>
<line x1="190" y1="389" x2="194" y2="382" style="stroke:#cb0033;stroke-width:1"/>
<line x1="192" y1="382" x2="186" y2="385" style="stroke:#cc0032;stroke-width:1"/>
<line x1="175" y1="386" x2="168" y2="381" style="stroke:#cc0032;stroke-width:1"/>
<line x1="168" y1="389" x2="176" y2="391" style="stroke:#cd0032;stroke-width:1"/>
<line x1="175" y1="390" x2="171" y2="391" style="stroke:#cd0031;stroke-width:1"/>
<line x1="166" y1="396" x2="165" y2="393" style="stroke:#cd0031;stroke-width:1"/>
<line x1="175" y1="378" x2="173" y2="380" style="stroke:#ce0030;stroke-width:1"/>
<line x1="171" y1="381" x2="179" y2="364" style="stroke:#ce0030;stroke-width:1"/>
<line x1="176" y1="361" x2="176" y2="353" style="stroke:#cf002f;stroke-width:1"/>
<line x1="183" y1="334" x2="183" y2="339" style="stroke:#cf002f;stroke-width:1"/>
<line x1="184" y1="350" x2="181" y2="351" style="stroke:#d0002e;stroke-width:1"/>
<line x1="181" y1="346" x2="167" y2="346" style="stroke:#d0002e;stroke-width:1"/>
<line x1="160" y1="338" x2="149" y2="300" style="stroke:#d1002d;stroke-width:1"/>
<line x1="131" y1="326" x2="129" y2="324" style="stroke:#d1002d;stroke-width:1"/>
<line x1="190" y1="304" x2="188" y2="299" style="stroke:#d2002c;stroke-width:1"/>
<line x1="203" y1="251" x2="198" y2="252" style="stroke:#d2002c;stroke-width:1"/>
<line x1="197" y1="251" x2="191" y2="253" style="stroke:#d3002b;stroke-width:1"/>
<line x1="194" y1="258" x2="191" y2="260" style="stroke:#d3002b;stroke-width:1"/>
<line x1="189" y1="255" x2="187" y2="252" style="stroke:#d4002a;stroke-width:1"/>
<line x1="187" y1="250" x2="182" y2="248" style="stroke:#d4002a;stroke-width:1"/>
<line x1="165" y1="246" x2="157" y2="232" style="stroke:#d50029;stroke-width:1"/>
<line x1="162" y1="228" x2="164" y2="227" style="stroke:#d50029;stroke-width:1"/>
<line x1="144" y1="242" x2="146" y2="237" style="stroke:#d60028;stroke-width:1"/>
<line x1="151" y1="235" x2="149" y2="227" style="stroke:#d60028;stroke-width:1"/>
<line x1="144" y1="229" x2="143" y2="227" style="stroke:#d70028;stroke-width:1"/>
<line x1="179" y1="204" x2="177" y2="202" style="stroke:#d70027;stroke-width:1"/>
<line x1="177" y1="196" x2="175" y2="196" style="stroke:#d80026;stroke-width:1"/>
<line x1="172" y1="199" x2="166" y2="202" style="stroke:#d80026;stroke-width:1"/>
<line x1="165" y1="203" x2="167" y2="197" style="stroke:#d90025;stroke-width:1"/>
<line x1="169" y1="195" x2="177" y2="192" style="stroke:#d90025;stroke-width:1"/>
<line x1="137" y1="219" x2="142" y2="216" style="stroke:#da0024;stroke-width:1"/>
<line x1="145" y1="213" x2="156" y2="222" style="stroke:#da0024;stroke-width:1"/>
<line x1="159" y1="221" x2="160" y2="219" style="stroke:#db0023;stroke-width:1"/>
<line x1="169" y1="210" x2="172" y2="213" style="stroke:#db0023;stroke-width:1"/>
<line x1="173" y1="214" x2="176" y2="215" style="stroke:#dc0023;stroke-width:1"/>
<line x1="162" y1="202" x2="159" y2="204" style="stroke:#dc0022;stroke-width:1"/>
<line x1="151" y1="201" x2="154" y2="209" style="stroke:#de0020;stroke-width:1"/>
<line x1="148" y1="211" x2="141" y2="210" style="stroke:#de0020;stroke-width:1"/>
<line x1="141" y1="209" x2="137" y2="208" style="stroke:#df001f;stroke-width:1"/>
<line x1="132" y1="209" x2="120" y2="210" style="stroke:#e0001e;stroke-width:1"/>
<line x1="162" y1="193" x2="164" y2="192" style="stroke:#e1001d;stroke-width:1"/>
<line x1="140" y1="190" x2="137" y2="189" style="stroke:#e1001d;stroke-width:1"/>
<line x1="78" y1="207" x2="66" y2="206" style="stroke:#e2001c;stroke-width:1"/>
<line x1="50" y1="211" x2="56" y2="210" style="stroke:#e2001c;stroke-width:1"/>
<line x1="57" y1="217" x2="54" y2="212" style="stroke:#e3001b;stroke-width:1"/>
<line x1="54" y1="218" x2="50" y2="225" style="stroke:#e3001b;stroke-width:1"/>
<line x1="46" y1="228" x2="46" y2="226" style="stroke:#e4001a;stroke-width:1"/>
<line x1="47" y1="223" x2="30" y2="223" style="stroke:#e4001a;stroke-width:1"/>
<line x1="30" y1="221" x2="30" y2="219" style="stroke:#e50019;stroke-width:1"/>
<line x1="50" y1="214" x2="47" y2="216" style="stroke:#e50019;stroke-width:1"/>
<line x1="49" y1="219" x2="56" y2="220" style="stroke:#e60019;stroke-width:1"/>
<line x1="59" y1="220" x2="62" y2="219" style="stroke:#e60018;stroke-width:1"/>
<line x1="66" y1="217" x2="80" y2="213" style="stroke:#e70017;stroke-width:1"/>
<line x1="82" y1="209" x2="91" y2="207" style="stroke:#e70017;stroke-width:1"/>
<line x1="108" y1="236" x2="112" y2="237" style="stroke:#e80016;stroke-width:1"/>
<line x1="104" y1="204" x2="107" y2="203" style="stroke:#e80016;stroke-width:1"/>
<line x1="108" y1="202" x2="111" y2="202" style="stroke:#e90015;stroke-width:1"/>
<line x1="135" y1="192" x2="139" y2="194" style="stroke:#e90015;stroke-width:1"/>
<line x1="114" y1="208" x2="111" y2="204" style="stroke:#ea0014;stroke-width:1"/>
<line x1="109" y1="208" x2="94" y2="216" style="stroke:#eb0014;stroke-width:1"/>
<line x1="92" y1="216" x2="88" y2="210" style="stroke:#eb0013;stroke-width:1"/>
<line x1="82" y1="219" x2="83" y2="222" style="stroke:#eb0013;stroke-width:1"/>
<line x1="83" y1="223" x2="86" y2="227" style="stroke:#ec0012;stroke-width:1"/>
<line x1="97" y1="239" x2="106" y2="243" style="stroke:#ec0012;stroke-width:1"/>
<line x1="111" y1="243" x2="111" y2="250" style="stroke:#ed0011;stroke-width:1"/>
<line x1="112" y1="249" x2="106" y2="251" style="stroke:#ed0011;stroke-width:1"/>
<line x1="98" y1="256" x2="94" y2="257" style="stroke:#ee0010;stroke-width:1"/>
<line x1="98" y1="259" x2="93" y2="264" style="stroke:#ee0010;stroke-width:1"/>
<line x1="95" y1="266" x2="90" y2="271" style="stroke:#ef000f;stroke-width:1"/>
<line x1="88" y1="272" x2="87" y2="268" style="stroke:#ef000f;stroke-width:1"/>
<line x1="78" y1="267" x2="78" y2="269" style="stroke:#f0000f;stroke-width:1"/>
<line x1="57" y1="272" x2="63" y2="273" style="stroke:#f0000e;stroke-width:1"/>
<line x1="64" y1="273" x2="65" y2="270" style="stroke:#f0000e;stroke-width:1"/>
<line x1="75" y1="268" x2="75" y2="262" style="stroke:#f1000d;stroke-width:1"/>
<line x1="62" y1="261" x2="65" y2="258" style="stroke:#f2000c;stroke-width:1"/>
<line x1="64" y1="256" x2="68" y2="254" style="stroke:#f3000b;stroke-width:1"/>
<line x1="64" y1="253" x2="59" y2="260" style="stroke:#f4000a;stroke-width:1"/>
<line x1="44" y1="257" x2="36" y2="243" style="stroke:#f4000a;stroke-width:1"/>
<line x1="33" y1="243" x2="30" y2="245" style="stroke:#f5000a;stroke-width:1"/>
<line x1="31" y1="249" x2="31" y2="254" style="stroke:#f50009;stroke-width:1"/>
<line x1="27" y1="246" x2="25" y2="251" style="stroke:#f50009;stroke-width:1"/>
<line x1="29" y1="255" x2="26" y2="256" style="stroke:#f60008;stroke-width:1"/>
<line x1="23" y1="253" x2="20" y2="252" style="stroke:#f60008;stroke-width:1"/>
<line x1="20" y1="259" x2="20" y2="263" style="stroke:#f70007;stroke-width:1"/>
<line x1="25" y1="272" x2="41" y2="304" style="stroke:#f70007;stroke-width:1"/>
<line x1="44" y1="310" x2="62" y2="294" style="stroke:#f80006;stroke-width:1"/>
<line x1="64" y1="293" x2="71" y2="283" style="stroke:#f80006;stroke-width:1"/>
<line x1="81" y1="275" x2="84" y2="266" style="stroke:#f90005;stroke-width:1"/>
<line x1="88" y1="265" x2="89" y2="262" style="stroke:#f90005;stroke-width:1"/>
<line x1="90" y1="261" x2="92" y2="259" style="stroke:#fa0005;stroke-width:1"/>
<line x1="180" y1="250" x2="185" y2="248" style="stroke:#fa0004;stroke-width:1"/>
<line x1="223" y1="236" x2="223" y2="231" style="stroke:#fa0004;stroke-width:1"/>
<line x1="294" y1="207" x2="280" y2="201" style="stroke:#fb0003;stroke-width:1"/>
<line x1="278" y1="204" x2="278" y2="207" style="stroke:#fb0003;stroke-width:1"/>
<line x1="277" y1="211" x2="276" y2="208" style="stroke:#fc0002;stroke-width:1"/>
<line x1="271" y1="207" x2="273" y2="204" style="stroke:#fd0001;stroke-width:1"/>
<line x1="265" y1="206" x2="268" y2="211" style="stroke:#fe0000;stroke-width:1"/>
<line x1="270" y1="210" x2="270" y2="213" style="stroke:#fe0000;stroke-width:1"/>
</svg>